# xmcd
#
# Track frame offsets:
#	150
#	33942
#	56424
#	94502
#	154767
#	174814
#	204309
#	237177
#	272102
#
# Disc length: 3876 seconds
#
# Revision: 4
# Processed by: cddbd v1.5.2PL0 Copyright (c) Steve Scherf et al.
# Submitted via: dBpowerAMP V4.0
#
DISCID=650f2209
DTITLE=Various Artist - The Blues (Hitech)
DYEAR=2001
DGENRE=Blues
TTITLE0=B.B King - Rock Me Baby
TTITLE1=Jackson Matthews - Break'in Up Somebody' Home
TTITLE2=Roosvelt Skyes - Driven Wheel
TTITLE3=Jimmy Reed - Tin Pan Alley
TTITLE4=Ed Davis - Heartfixing Man
TTITLE5=S.Selby - Darling I Miss You
TTITLE6=S.Selby - Message To Man
TTITLE7=Gibson - I Can't Stop Loving You
TTITLE8=S.Selby - Time To Throw Down
EXTD=
EXTT0=
EXTT1=
EXTT2=
EXTT3=
EXTT4=
EXTT5=
EXTT6=
EXTT7=
EXTT8=
PLAYORDER=
